<?xml version="1.0" encoding="utf-8"?>
<!-- Generator: Adobe Illustrator 15.0.0, SVG Export Plug-In . SVG Version: 6.00 Build 0)  -->
<!DOCTYPE svg PUBLIC "-//W3C//DTD SVG 1.1//EN" "http://www.w3.org/Graphics/SVG/1.1/DTD/svg11.dtd">
<svg version="1.1" xmlns="http://www.w3.org/2000/svg" xmlns:xlink="http://www.w3.org/1999/xlink" x="0px" y="0px"
	 width="181.42px" height="181.42px" viewBox="0 0 181.42 181.42" enable-background="new 0 0 181.42 181.42" xml:space="preserve">
<g id="レイヤー_1">
	<g>
		<path fill="#FFFFFF" d="M1110.357,65.915c-1.417-3.349-3.767-6.176-6.735-8.18c-2.963-2.009-6.563-3.183-10.396-3.183h-15.716
			v-4.226c0-2.261-0.463-4.439-1.299-6.404c-1.251-2.959-3.329-5.465-5.952-7.23c-2.626-1.78-5.812-2.817-9.197-2.817h-13.096
			c-2.256,0-4.433,0.458-6.396,1.295c-2.963,1.249-5.46,3.329-7.238,5.953c-1.773,2.625-2.805,5.806-2.805,9.198v4.232h-15.725
			c-2.565,0-5.021,0.526-7.254,1.465c-3.35,1.411-6.183,3.771-8.191,6.727c-2.001,2.967-3.174,6.568-3.174,10.397v55.808
			c0,2.56,0.515,5.006,1.465,7.242c1.408,3.332,3.771,6.167,6.737,8.179c2.968,2.002,6.576,3.18,10.417,3.175h77.424
			c2.554,0.005,5.014-0.524,7.238-1.464c3.345-1.419,6.178-3.763,8.171-6.736c2.01-2.962,3.179-6.56,3.179-10.396V73.142
			C1111.814,70.589,1111.299,68.133,1110.357,65.915z M1039.897,50.326c0-1.13,0.232-2.178,0.637-3.14
			c0.605-1.445,1.641-2.687,2.932-3.558c1.291-0.865,2.825-1.369,4.501-1.375h13.096c1.116,0,2.168,0.229,3.133,0.634
			c1.446,0.608,2.688,1.633,3.557,2.929c0.868,1.293,1.372,2.822,1.372,4.509v4.226h-29.227V50.326z M1103.444,128.949
			c0,1.42-0.288,2.756-0.804,3.977c-0.78,1.828-2.079,3.393-3.706,4.495c-1.64,1.102-3.576,1.741-5.708,1.741h-77.424
			c-1.425,0-2.761-0.294-3.982-0.802c-1.831-0.773-3.401-2.072-4.502-3.704c-1.107-1.637-1.741-3.572-1.745-5.707v-42.57h97.871
			V128.949L1103.444,128.949z M1103.444,79.562h-97.871v-6.42c0.004-1.409,0.284-2.748,0.808-3.963
			c0.768-1.829,2.074-3.396,3.714-4.506c1.633-1.096,3.576-1.731,5.708-1.737h77.424c1.43,0.006,2.756,0.284,3.976,0.802
			c1.825,0.769,3.389,2.078,4.488,3.706c1.104,1.639,1.746,3.578,1.754,5.699V79.562L1103.444,79.562z"/>
		<polygon fill="#FFFFFF" points="1048.482,131.503 1061.484,131.503 1061.484,119.364 1073.621,119.364 1073.621,106.359 
			1061.484,106.359 1061.484,94.221 1048.482,94.221 1048.482,106.359 1036.346,106.359 1036.346,119.364 1048.482,119.364 		"/>
	</g>
</g>
<g id="レイヤー_5">
	<g>
		<polygon fill="#FFFFFF" points="770.557,37.173 750.93,37.173 750.93,144.247 770.557,144.247 770.557,117.477 856.51,117.477 
			856.51,144.247 876.174,144.247 876.174,117.477 876.174,117.477 876.174,94.28 770.557,94.28 		"/>
		<path fill="#FFFFFF" d="M859.453,55.687h-49.336v27.887h66.057v-11.19C876.174,63.164,868.691,55.687,859.453,55.687z"/>
		<path fill="#FFFFFF" d="M790.666,58.114c6.726,0,12.186,5.455,12.186,12.182c0,6.726-5.46,12.184-12.186,12.184
			c-6.727,0-12.174-5.458-12.174-12.184C778.492,63.569,783.939,58.114,790.666,58.114z"/>
	</g>
</g>
<g id="レイヤー_4">
	<g>
		<path fill="#FFFFFF" d="M610.762,126.698c-33.434,0-60.541-27.116-60.541-60.552c0-16.159,6.348-30.833,16.662-41.691
			c-32.24,4.655-57.02,32.384-57.02,65.913c0,36.777,29.82,66.597,66.6,66.597c25.535,0,47.713-14.387,58.883-35.493
			C627.832,124.813,619.52,126.698,610.762,126.698z"/>
		<path fill="#FFFFFF" d="M596.838,70.863c0.27,0.267,0.391,0.649,0.326,1.02l-2.211,12.922c-0.078,0.433,0.096,0.867,0.445,1.133
			c0.363,0.25,0.822,0.276,1.217,0.075l11.607-6.098c0.328-0.174,0.727-0.174,1.063,0l11.609,6.098
			c0.387,0.201,0.848,0.175,1.199-0.075c0.352-0.266,0.529-0.7,0.461-1.133l-2.217-12.922c-0.072-0.37,0.057-0.753,0.32-1.02
			l9.4-9.146c0.311-0.302,0.424-0.761,0.295-1.173c-0.143-0.414-0.5-0.719-0.936-0.775l-12.975-1.899
			c-0.371-0.047-0.699-0.276-0.867-0.611l-5.801-11.765c-0.186-0.392-0.588-0.644-1.02-0.644s-0.84,0.252-1.033,0.644l-5.809,11.765
			c-0.166,0.335-0.486,0.564-0.848,0.611l-12.98,1.899c-0.432,0.057-0.795,0.361-0.928,0.775c-0.129,0.412-0.02,0.871,0.285,1.173
			L596.838,70.863z"/>
	</g>
</g>
<g id="レイヤー_3">
	<g>
		<path fill="#FFFFFF" d="M368.319,119.011c1.31-3.853,2.053-7.969,2.053-12.253c0-21.015-17.032-38.041-38.049-38.041
			c-21.015,0-38.046,17.026-38.046,38.041c0,4.284,0.741,8.4,2.051,12.253c10.718-5.791,22.958-9.101,35.995-9.101
			C345.361,109.91,357.604,113.22,368.319,119.011z"/>
		<rect x="326.778" y="36.117" fill="#FFFFFF" width="11.082" height="21.325"/>
		<polygon fill="#FFFFFF" points="301.368,67.962 286.287,52.892 278.451,60.721 293.533,75.807 		"/>
		<rect x="261.677" y="101.221" fill="#FFFFFF" width="21.327" height="11.078"/>
		<rect x="381.638" y="101.221" fill="#FFFFFF" width="21.334" height="11.078"/>
		<polygon fill="#FFFFFF" points="386.196,60.721 378.358,52.892 363.276,67.962 371.113,75.807 		"/>
		<path fill="#FFFFFF" d="M406.627,145.303c-0.264-0.278-27.035-27.66-74.304-27.66c-44.924,0-70.628,22.356-73.489,26.472
			l-3.069-2.132l-6.843-1.605c1.494-6.39,33.016-33.449,83.401-33.449c52.063,0,80.871,29.722,82.069,30.977L406.627,145.303z"/>
	</g>
</g>
<g id="レイヤー_2">
	<g>
		<path fill="#FFFFFF" d="M90.709,52.661c-21.014,0-38.047,17.031-38.047,38.05c0,21.014,17.033,38.048,38.047,38.048
			c21.017,0,38.05-17.034,38.05-38.048C128.76,69.692,111.727,52.661,90.709,52.661z"/>
		<rect x="85.164" y="20.062" fill="#FFFFFF" width="11.083" height="21.329"/>
		<rect x="85.164" y="140.025" fill="#FFFFFF" width="11.083" height="21.333"/>
		
			<rect x="37.631" y="42.752" transform="matrix(-0.7072 -0.707 0.707 -0.7072 48.2997 116.5916)" fill="#FFFFFF" width="21.324" height="11.084"/>
		<polygon fill="#FFFFFF" points="121.662,129.49 136.746,144.578 144.584,136.745 129.5,121.662 		"/>
		<rect x="20.064" y="85.169" fill="#FFFFFF" width="21.323" height="11.073"/>
		<polygon fill="#FFFFFF" points="140.023,85.169 140.023,96.252 161.355,96.242 161.355,85.169 		"/>
		<polygon fill="#FFFFFF" points="36.837,136.745 44.667,144.578 59.752,129.49 51.915,121.662 		"/>
		<polygon fill="#FFFFFF" points="144.584,44.665 136.742,36.837 121.662,51.914 129.5,59.757 		"/>
	</g>
</g>
</svg>
