<?xml version="1.0" encoding="utf-8"?>
<!-- Generator: Adobe Illustrator 15.0.0, SVG Export Plug-In . SVG Version: 6.00 Build 0)  -->
<!DOCTYPE svg PUBLIC "-//W3C//DTD SVG 1.1//EN" "http://www.w3.org/Graphics/SVG/1.1/DTD/svg11.dtd">
<svg version="1.1" id="レイヤー_4" xmlns="http://www.w3.org/2000/svg" xmlns:xlink="http://www.w3.org/1999/xlink" x="0px"
	 y="0px" width="181.42px" height="181.42px" viewBox="0 0 181.42 181.42" enable-background="new 0 0 181.42 181.42"
	 xml:space="preserve">
<g>
	<path fill="#FFFFFF" d="M128.867,126.698c-33.434,0-60.541-27.116-60.541-60.552c0-16.159,6.348-30.833,16.662-41.691
		c-32.24,4.655-57.02,32.384-57.02,65.913c0,36.777,29.82,66.597,66.6,66.597c25.535,0,47.713-14.387,58.883-35.493
		C145.938,124.813,137.625,126.698,128.867,126.698z"/>
	<path fill="#FFFFFF" d="M114.943,70.863c0.27,0.267,0.391,0.649,0.326,1.02l-2.211,12.922c-0.078,0.433,0.096,0.867,0.445,1.133
		c0.363,0.25,0.822,0.276,1.217,0.075l11.607-6.098c0.328-0.174,0.727-0.174,1.063,0L139,86.013
		c0.387,0.201,0.848,0.175,1.199-0.075c0.352-0.266,0.529-0.7,0.461-1.133l-2.217-12.922c-0.072-0.37,0.057-0.753,0.32-1.02
		l9.4-9.146c0.311-0.302,0.424-0.761,0.295-1.173c-0.143-0.414-0.5-0.719-0.936-0.775l-12.975-1.899
		c-0.371-0.047-0.699-0.276-0.867-0.611l-5.801-11.765c-0.186-0.392-0.588-0.644-1.02-0.644s-0.84,0.252-1.033,0.644l-5.809,11.765
		c-0.166,0.335-0.486,0.564-0.848,0.611l-12.98,1.899c-0.432,0.057-0.795,0.361-0.928,0.775c-0.129,0.412-0.02,0.871,0.285,1.173
		L114.943,70.863z"/>
</g>
</svg>
