<?xml version="1.0" encoding="utf-8"?>
<!-- Generator: Adobe Illustrator 15.0.0, SVG Export Plug-In . SVG Version: 6.00 Build 0)  -->
<!DOCTYPE svg PUBLIC "-//W3C//DTD SVG 1.1//EN" "http://www.w3.org/Graphics/SVG/1.1/DTD/svg11.dtd">
<svg version="1.1" id="レイヤー_3" xmlns="http://www.w3.org/2000/svg" xmlns:xlink="http://www.w3.org/1999/xlink" x="0px"
	 y="0px" width="181.42px" height="181.42px" viewBox="0 0 181.42 181.42" enable-background="new 0 0 181.42 181.42"
	 xml:space="preserve">
<g>
	<path fill="#FFFFFF" d="M127.372,119.011c1.31-3.853,2.053-7.969,2.053-12.253c0-21.015-17.032-38.041-38.049-38.041
		c-21.015,0-38.046,17.026-38.046,38.041c0,4.284,0.741,8.4,2.051,12.253c10.718-5.791,22.958-9.101,35.995-9.101
		C104.414,109.91,116.657,113.22,127.372,119.011z"/>
	<rect x="85.831" y="36.117" fill="#FFFFFF" width="11.082" height="21.325"/>
	<polygon fill="#FFFFFF" points="60.421,67.962 45.34,52.892 37.504,60.721 52.586,75.807 	"/>
	<rect x="20.729" y="101.221" fill="#FFFFFF" width="21.327" height="11.078"/>
	<rect x="140.69" y="101.221" fill="#FFFFFF" width="21.334" height="11.078"/>
	<polygon fill="#FFFFFF" points="145.249,60.721 137.411,52.892 122.329,67.962 130.166,75.807 	"/>
	<path fill="#FFFFFF" d="M165.68,145.303c-0.264-0.278-27.035-27.66-74.304-27.66c-44.924,0-70.628,22.356-73.489,26.472
		l-3.069-2.132l-6.843-1.605c1.494-6.39,33.016-33.449,83.401-33.449c52.063,0,80.871,29.722,82.069,30.977L165.68,145.303z"/>
</g>
</svg>
