<?xml version="1.0" encoding="utf-8"?>
<!-- Generator: Adobe Illustrator 15.0.0, SVG Export Plug-In . SVG Version: 6.00 Build 0)  -->
<!DOCTYPE svg PUBLIC "-//W3C//DTD SVG 1.1//EN" "http://www.w3.org/Graphics/SVG/1.1/DTD/svg11.dtd">
<svg version="1.1" id="レイヤー_1" xmlns="http://www.w3.org/2000/svg" xmlns:xlink="http://www.w3.org/1999/xlink" x="0px"
	 y="0px" width="181.42px" height="181.42px" viewBox="0 0 181.42 181.42" enable-background="new 0 0 181.42 181.42"
	 xml:space="preserve">
<g>
	<path fill="#FFFFFF" d="M146.568,65.915c-1.417-3.349-3.767-6.176-6.735-8.18c-2.963-2.009-6.563-3.183-10.396-3.183h-15.716
		v-4.226c0-2.261-0.463-4.439-1.299-6.404c-1.251-2.959-3.329-5.465-5.952-7.23c-2.626-1.78-5.812-2.817-9.197-2.817H84.178
		c-2.256,0-4.433,0.458-6.396,1.295c-2.963,1.249-5.46,3.329-7.238,5.953c-1.773,2.625-2.805,5.806-2.805,9.198v4.232H52.014
		c-2.565,0-5.021,0.526-7.254,1.465c-3.35,1.411-6.183,3.771-8.191,6.727c-2.001,2.967-3.174,6.568-3.174,10.397v55.808
		c0,2.56,0.515,5.006,1.465,7.242c1.408,3.332,3.771,6.167,6.737,8.179c2.968,2.002,6.576,3.18,10.417,3.175h77.424
		c2.554,0.005,5.014-0.524,7.238-1.464c3.345-1.419,6.178-3.763,8.171-6.736c2.01-2.962,3.179-6.56,3.179-10.396V73.142
		C148.025,70.589,147.51,68.133,146.568,65.915z M76.108,50.326c0-1.13,0.232-2.178,0.637-3.14c0.605-1.445,1.641-2.687,2.932-3.558
		c1.291-0.865,2.825-1.369,4.501-1.375h13.096c1.116,0,2.168,0.229,3.133,0.634c1.446,0.608,2.688,1.633,3.557,2.929
		c0.868,1.293,1.372,2.822,1.372,4.509v4.226H76.108V50.326z M139.655,128.949c0,1.42-0.288,2.756-0.804,3.977
		c-0.78,1.828-2.079,3.393-3.706,4.495c-1.64,1.102-3.576,1.741-5.708,1.741H52.014c-1.425,0-2.761-0.294-3.982-0.802
		c-1.831-0.773-3.401-2.072-4.502-3.704c-1.107-1.637-1.741-3.572-1.745-5.707v-42.57h97.871V128.949L139.655,128.949z
		 M139.655,79.562H41.784v-6.42c0.004-1.409,0.284-2.748,0.808-3.963c0.768-1.829,2.074-3.396,3.714-4.506
		c1.633-1.096,3.576-1.731,5.708-1.737h77.424c1.43,0.006,2.756,0.284,3.976,0.802c1.825,0.769,3.389,2.078,4.488,3.706
		c1.104,1.639,1.746,3.578,1.754,5.699V79.562L139.655,79.562z"/>
	<polygon fill="#FFFFFF" points="84.693,131.503 97.695,131.503 97.695,119.364 109.832,119.364 109.832,106.359 97.695,106.359 
		97.695,94.221 84.693,94.221 84.693,106.359 72.557,106.359 72.557,119.364 84.693,119.364 	"/>
</g>
</svg>
