<?xml version="1.0" encoding="utf-8"?>
<!-- Generator: Adobe Illustrator 15.0.0, SVG Export Plug-In . SVG Version: 6.00 Build 0)  -->
<!DOCTYPE svg PUBLIC "-//W3C//DTD SVG 1.1//EN" "http://www.w3.org/Graphics/SVG/1.1/DTD/svg11.dtd">
<svg version="1.1" id="レイヤー_5" xmlns="http://www.w3.org/2000/svg" xmlns:xlink="http://www.w3.org/1999/xlink" x="0px"
	 y="0px" width="181.42px" height="181.42px" viewBox="0 0 181.42 181.42" enable-background="new 0 0 181.42 181.42"
	 xml:space="preserve">
<g>
	<polygon fill="#FFFFFF" points="47.715,37.173 28.088,37.173 28.088,144.247 47.715,144.247 47.715,117.477 133.668,117.477 
		133.668,144.247 153.332,144.247 153.332,117.477 153.332,117.477 153.332,94.28 47.715,94.28 	"/>
	<path fill="#FFFFFF" d="M136.611,55.687H87.275v27.887h66.057v-11.19C153.332,63.164,145.85,55.687,136.611,55.687z"/>
	<path fill="#FFFFFF" d="M67.824,58.114c6.726,0,12.186,5.455,12.186,12.182c0,6.726-5.46,12.184-12.186,12.184
		c-6.727,0-12.174-5.458-12.174-12.184C55.65,63.569,61.098,58.114,67.824,58.114z"/>
</g>
</svg>
